<svg width="24" height="24" viewBox="0 0 24 24" fill="none" xmlns="http://www.w3.org/2000/svg">
<path d="M2.411 5.60006C2.30499 5.59856 2.19974 5.61814 2.10137 5.65767C2.00299 5.6972 1.91346 5.75589 1.83796 5.83033C1.76247 5.90476 1.70252 5.99346 1.6616 6.09127C1.62068 6.18907 1.59961 6.29404 1.59961 6.40006C1.59961 6.50608 1.62068 6.61104 1.6616 6.70884C1.70252 6.80665 1.76247 6.89535 1.83796 6.96978C1.91346 7.04422 2.00299 7.10291 2.10137 7.14244C2.19974 7.18197 2.30499 7.20155 2.411 7.20006H21.611C21.717 7.20155 21.8223 7.18197 21.9206 7.14244C22.019 7.10291 22.1085 7.04422 22.184 6.96978C22.2595 6.89535 22.3195 6.80665 22.3604 6.70884C22.4013 6.61104 22.4224 6.50608 22.4224 6.40006C22.4224 6.29404 22.4013 6.18907 22.3604 6.09127C22.3195 5.99346 22.2595 5.90476 22.184 5.83033C22.1085 5.75589 22.019 5.6972 21.9206 5.65767C21.8223 5.61814 21.717 5.59856 21.611 5.60006H2.411ZM2.411 11.2001C2.30499 11.1986 2.19974 11.2181 2.10137 11.2577C2.00299 11.2972 1.91346 11.3559 1.83796 11.4303C1.76247 11.5048 1.70252 11.5935 1.6616 11.6913C1.62068 11.7891 1.59961 11.894 1.59961 12.0001C1.59961 12.1061 1.62068 12.211 1.6616 12.3088C1.70252 12.4067 1.76247 12.4953 1.83796 12.5698C1.91346 12.6442 2.00299 12.7029 2.10137 12.7424C2.19974 12.782 2.30499 12.8016 2.411 12.8001H21.611C21.717 12.8016 21.8223 12.782 21.9206 12.7424C22.019 12.7029 22.1085 12.6442 22.184 12.5698C22.2595 12.4953 22.3195 12.4067 22.3604 12.3088C22.4013 12.211 22.4224 12.1061 22.4224 12.0001C22.4224 11.894 22.4013 11.7891 22.3604 11.6913C22.3195 11.5935 22.2595 11.5048 22.184 11.4303C22.1085 11.3559 22.019 11.2972 21.9206 11.2577C21.8223 11.2181 21.717 11.1986 21.611 11.2001H2.411ZM2.411 16.8001C2.30499 16.7986 2.19974 16.8181 2.10137 16.8577C2.00299 16.8972 1.91346 16.9559 1.83796 17.0303C1.76247 17.1048 1.70252 17.1935 1.6616 17.2913C1.62068 17.3891 1.59961 17.494 1.59961 17.6001C1.59961 17.7061 1.62068 17.811 1.6616 17.9088C1.70252 18.0067 1.76247 18.0953 1.83796 18.1698C1.91346 18.2442 2.00299 18.3029 2.10137 18.3424C2.19974 18.382 2.30499 18.4016 2.411 18.4001H21.611C21.717 18.4016 21.8223 18.382 21.9206 18.3424C22.019 18.3029 22.1085 18.2442 22.184 18.1698C22.2595 18.0953 22.3195 18.0067 22.3604 17.9088C22.4013 17.811 22.4224 17.7061 22.4224 17.6001C22.4224 17.494 22.4013 17.3891 22.3604 17.2913C22.3195 17.1935 22.2595 17.1048 22.184 17.0303C22.1085 16.9559 22.019 16.8972 21.9206 16.8577C21.8223 16.8181 21.717 16.7986 21.611 16.8001H2.411Z" fill="black"/>
</svg>
