<svg width="24" height="24" viewBox="0 0 24 24" fill="none" xmlns="http://www.w3.org/2000/svg">
<path d="M14.7505 17.2709C14.7505 18.7897 13.5193 20.0209 12.0005 20.0209C10.4817 20.0209 9.25048 18.7897 9.25048 17.2709M17.5005 10.1209C17.5005 8.85668 16.921 6.26917 15.8896 5.37525C14.8581 4.48133 13.4592 3.97913 12.0005 3.97913C10.5418 3.97913 9.14284 4.48133 8.11139 5.37525C7.07994 6.26917 6.50048 8.85668 6.50048 10.1209C6.50048 12.2125 5.98176 13.7422 5.33453 14.8368C4.59687 16.0844 4.22804 16.7081 4.2426 16.8571C4.25927 17.0276 4.28995 17.0814 4.4282 17.1825C4.54905 17.2709 5.15619 17.2709 6.37048 17.2709H17.6305C18.8448 17.2709 19.4519 17.2709 19.5727 17.1825C19.711 17.0814 19.7417 17.0276 19.7584 16.8571C19.7729 16.7081 19.4041 16.0844 18.6664 14.8368C18.0192 13.7422 17.5005 12.2125 17.5005 10.1209Z" stroke="#212529" stroke-width="1.375" stroke-linecap="round" stroke-linejoin="round"/>
</svg>
