<svg width="17" height="16" viewBox="0 0 17 16" fill="none" xmlns="http://www.w3.org/2000/svg">
<path d="M3.54199 12V14.5107L4.61512 13.9047L7.9882 12H11.3337C12.115 12 12.7503 11.402 12.7503 10.6667V5.33333C12.7503 4.598 12.115 4 11.3337 4H2.83366C2.05237 4 1.41699 4.598 1.41699 5.33333V10.6667C1.41699 11.402 2.05237 12 2.83366 12H3.54199ZM2.83366 5.33333H11.3337V10.6667H7.59578L4.95866 12.156V10.6667H2.83366V5.33333Z" fill="#8C8C8C"/>
<path d="M14.1667 1.33337H5.66667C4.88538 1.33337 4.25 1.93137 4.25 2.66671H12.75C13.5313 2.66671 14.1667 3.26471 14.1667 4.00004V9.33337C14.948 9.33337 15.5833 8.73537 15.5833 8.00004V2.66671C15.5833 1.93137 14.948 1.33337 14.1667 1.33337Z" fill="#8C8C8C"/>
</svg>
